# xmcd
#
# Track frame offsets: 
#        150
#        16217
#        45620
#        64702
#        89257
#
# Disc length: 1519 seconds
#
# Revision: 2
# Processed by: cddbd v1.5.2PL0 Copyright (c) Steve Scherf et al.
# Submitted via: ExactAudioCopyFreeDBPlugin 1.0
#
DISCID=3405ed05
DTITLE=Flexx - Spider
DYEAR=1995
DGENRE=Eurodance
TTITLE0=Spider (Radio Edit)
TTITLE1=Spider (J.J.'s W W W Mix)
TTITLE2=Spider (Antiloop DaCyberguru Mix)
TTITLE3=Spider (Quiz Main Mix)
TTITLE4=Spider (Bass Nation Version)
EXTD=
EXTT0=
EXTT1=
EXTT2=
EXTT3=
EXTT4=
PLAYORDER=
